<svg xmlns="http://www.w3.org/2000/svg" width="1200" viewBox="0 0 900 600" height="800" version="1.0"><defs><clipPath id="a"><path d="M443 232h191v206H443zm0 0"/></clipPath><clipPath id="b"><path d="M504.762 491.816 391.27 295.91 572.574 190.88l113.492 195.906zm0 0"/></clipPath><clipPath id="c"><path d="M504.762 491.816 391.27 295.91 572.574 190.88l113.492 195.906zm0 0"/></clipPath><clipPath id="d"><path d="M504.762 491.816 391.27 295.91 572.574 190.88l113.492 195.906zm0 0"/></clipPath></defs><path fill="#fff" d="M-90-60H990v720H-90z"/><path fill="#fff" d="M-90-60H990v720H-90z"/><path fill="#fff" d="M-90-60H990v720H-90z"/><path d="M133.065 226.664h-14.953v7.477c7.175 0 11.363.597 12.859 2.39 1.496 1.497 2.094 4.786 2.094 9.57v172.563c0 3.59-.899 6.281-2.692 7.778-1.793 1.195-5.683 2.093-12.261 2.093v7.477h59.812v-7.477c-6.578 0-10.766-.597-12.559-1.793-1.496-1.199-2.394-3.89-2.394-8.078V246.403c0-5.383.898-8.973 2.691-10.168 1.496-1.497 5.684-2.094 12.262-2.094v-7.477zm0 0"/><path d="M145.616 226.664v36.188h7.477c0-10.168 1.195-15.852 2.992-17.946 2.09-2.394 6.277-3.289 12.262-3.289h42.464c.301 1.196.301 2.692.301 4.485v172.562c0 3.59-.898 6.281-2.992 7.778-1.793 1.195-5.68 2.093-11.961 2.093v7.477h59.813v-7.477c-6.88 0-10.766-.597-12.56-1.793-1.495-1.199-2.394-3.89-2.394-8.078V246.403c0-2.094.301-3.59.301-4.786h41.867c6.582 0 11.067 1.196 12.864 3.586 1.793 2.094 2.691 8.078 2.691 17.649h7.477v-36.188zm0 0"/><path d="m373.186 436.012 16.152-38.281 32.598-77.457 6.281-14.957 6.281-14.954 6.578-14.953 11.067-26.316c2.691-5.98 5.68-9.871 9.27-11.664 4.187-2.395 10.468-3.29 19.44-3.29v-7.476h-59.816v7.477h.899c8.972 0 14.054 1.195 15.55 4.187.598.598.598 1.492.598 2.692 0 1.793-.598 4.484-2.39 8.074l-11.067 26.316-12.562 29.907-6.278 14.957-24.523 58.02-24.824-58.02-6.282-14.957-6.28-14.954-6.278-14.953-11.067-26.316c-1.496-3.89-2.394-6.879-2.394-8.672 0-.898.3-1.496.3-2.094 1.196-2.691 4.188-4.187 9.27-4.187v-7.477h-59.812v7.477c7.476.297 12.558 2.094 15.254 5.68 1.195 1.199 2.69 4.187 4.785 9.273l11.062 26.316 6.582 14.953 6.278 14.954 6.28 14.957 40.677 96.597zM606.362 226.664v7.477c5.683 0 9.57.597 11.664 1.793 2.39.898 3.59 2.394 3.59 4.488v22.43h7.476c0-8.375 1.492-14.059 4.184-16.75 2.992-2.989 9.273-4.485 18.246-4.485h26.914c20.336 0 37.683 8.672 52.039 26.317 14.355 17.347 21.535 38.582 21.535 63.402 0 24.524-7.18 45.758-21.535 63.402-14.356 17.348-31.703 26.32-52.04 26.32h-26.913c-9.871 0-16.153-1.792-18.844-5.085-2.39-2.988-3.586-8.371-3.586-16.149h-7.477v22.43c0 1.797-1.199 3.29-2.992 4.488-1.793 1.196-5.98 1.793-12.261 1.793v7.477h71.777c19.14 0 36.187-4.785 52.035-14.055 16.152-9.57 28.414-21.832 37.684-37.984 9.57-16.149 14.058-33.793 14.058-52.637 0-19.14-4.187-36.187-13.758-52.336-9.273-16.148-21.535-29.012-37.683-38.281-15.852-9.57-33.195-14.055-52.04-14.055zm0 0"/><g clip-path="url(#a)"><g clip-path="url(#b)"><g clip-path="url(#c)"><g clip-path="url(#d)"><path d="M478.668 250.875c29.055-22.352 69.633-23.992 101.723-6.695 31.32 16.742 51.8 50.195 53.324 85.632 2.894 80.043-81.32 134.47-151.942 94.665a91.704 91.704 0 0 1-11.941-8.364 91.44 91.44 0 0 1-10.469-10.148 91.48 91.48 0 0 1-8.726-11.68 92.054 92.054 0 0 1-6.766-12.91 123.803 123.803 0 0 0 9.414 10.414l2.485 2.492c1.476 1.598 6.136 5.164 7.8 6.676 31.743 23.887 76.075 26.453 108.774 3.441 31.457-21.187 45.281-62.023 33.883-98.086-.79-1.937-2.32-6.886-3.293-8.699a88.086 88.086 0 0 0-15.121-23.629 91.227 91.227 0 0 0-14.079-12.894 91.25 91.25 0 0 0-16.441-9.695 97.51 97.51 0 0 0-28.8-7.762 97.062 97.062 0 0 0-14.954-.5c-4.996.215-9.95.808-14.851 1.785-2.27.414-4.508.95-6.715 1.61a128.382 128.382 0 0 0-13.348 4.374zm0 0"/></g></g></g></g></svg>