<svg xmlns="http://www.w3.org/2000/svg" width="1200" viewBox="0 0 900 600" height="800" version="1.0"><defs><clipPath id="a"><path d="M339 116h131v148H339zm0 0"/></clipPath><clipPath id="b"><path d="m390.77 78.266 125.734 102.152-94.586 116.418-125.734-102.152zm0 0"/></clipPath><clipPath id="c"><path d="m390.77 78.266 125.734 102.152-94.586 116.418-125.734-102.152zm0 0"/></clipPath><clipPath id="d"><path d="m390.77 78.266 125.734 102.152-94.586 116.418-125.734-102.152zm0 0"/></clipPath><clipPath id="e"><path d="M555 259h130v148H555zm0 0"/></clipPath><clipPath id="f"><path d="M612.246 446.563 507.352 323.108 621.66 225.98l104.895 123.454zm0 0"/></clipPath><clipPath id="g"><path d="M612.246 446.563 507.352 323.108 621.66 225.98l104.895 123.454zm0 0"/></clipPath><clipPath id="h"><path d="M612.246 446.563 507.352 323.108 621.66 225.98l104.895 123.454zm0 0"/></clipPath></defs><path fill="#fff" d="M-90-60H990v720H-90z"/><path fill="#fff" d="M-90-60H990v720H-90z"/><path fill="#fff" d="M-90-60H990v720H-90z"/><path d="M106.073 116.383H95.515v5.282c5.07 0 8.027.422 9.082 1.687 1.055 1.059 1.476 3.38 1.476 6.758v121.863c0 2.535-.632 4.438-1.898 5.493-1.27.843-4.016 1.476-8.66 1.476v5.281h42.238v-5.28c-4.644 0-7.601-.423-8.867-1.267-1.059-.843-1.691-2.746-1.691-5.703V130.321c0-3.8.632-6.336 1.902-7.18 1.055-1.054 4.012-1.476 8.656-1.476v-5.282zm0 0"/><path d="M130.363 116.383v5.282c4.011 1.265 6.757 2.957 8.238 4.855.633.422 1.687 1.692 3.168 4.012 1.687 2.113 3.168 4.226 4.434 6.336l10.558 13.73 76.457 99.899 10.559 13.726V129.9c0-3.379 1.054-5.488 2.957-6.547 1.48-.844 5.703-1.476 12.883-1.687v-5.282h-42.239v5.282c7.18 0 11.825.633 13.516 2.11 1.691 1.269 2.324 3.378 2.324 6.335v85.54l-76.031-99.267zm0 0"/><path d="M252.014 116.383v25.555h5.28c0-7.18.845-11.191 2.11-12.672 1.48-1.687 4.438-2.324 8.66-2.324h29.993c.21.848.21 1.902.21 3.168v121.863c0 2.535-.632 4.438-2.113 5.493-1.265.843-4.012 1.476-8.45 1.476v5.281h42.243v-5.28c-4.86 0-7.605-.423-8.871-1.267-1.055-.843-1.691-2.746-1.691-5.703V130.321c0-1.477.214-2.531.214-3.379h29.567c4.644 0 7.812.848 9.082 2.535 1.266 1.48 1.898 5.703 1.898 12.461h5.282v-25.555zM487.905 116.383v25.555h5.282c0-7.18.843-11.191 2.11-12.672 1.48-1.687 4.437-2.324 8.66-2.324h29.991c.211.848.211 1.902.211 3.168v121.863c0 2.535-.632 4.438-2.113 5.493-1.266.843-4.012 1.476-8.45 1.476v5.281h42.243v-5.28c-4.86 0-7.605-.423-8.871-1.267-1.055-.843-1.691-2.746-1.691-5.703V130.321c0-1.477.214-2.531.214-3.379h29.567c4.644 0 7.812.848 9.082 2.535 1.265 1.48 1.898 5.703 1.898 12.461h5.282v-25.555zm0 0"/><path d="M593.928 116.383v5.282c4.859 0 7.816.422 8.66 1.476 1.265.844 1.898 3.38 1.898 7.18v121.652c0 2.957-.422 4.86-1.687 5.703-1.055.844-4.012 1.266-8.871 1.266v5.281h42.238v-5.28c-4.434 0-7.39-.634-8.656-1.477-1.27-1.055-1.903-2.958-1.903-5.493V202.13c0-4.012.633-6.547 1.692-7.391 1.265-1.27 4.222-1.691 8.445-1.691h.422v-5.278c-4.645-.21-7.602-1.27-8.867-3.168-1.059-1.691-1.692-4.648-1.692-8.87V130.11c0-3.379.633-5.7 1.48-6.758 1.266-1.265 4.223-1.687 9.079-1.687v-5.282zm77.3 0v5.282c5.067 0 8.024.422 9.082 1.687 1.055 1.059 1.477 3.38 1.477 6.758v45.621c0 4.223-.422 7.18-1.691 8.871-1.266 1.899-4.223 2.957-8.868 3.168v5.278h.422c4.434 0 7.18.421 8.446 1.691 1.269.844 1.69 3.379 1.69 7.39v49.844c0 2.535-.632 4.438-1.901 5.493-1.266.843-4.012 1.476-8.657 1.476v5.281h42.239v-5.28c-4.645 0-7.602-.423-8.871-1.267-1.055-.843-1.688-2.746-1.688-5.703V130.321c0-3.8.633-6.336 1.898-7.18 1.059-1.054 4.016-1.476 8.66-1.476v-5.282zm0 0"/><path d="M804.492 116.383h-98.418v5.282h.211c3.801 0 6.336.21 8.028 1.054 1.687.844 2.531 2.114 2.531 4.223v14.785h5.281c.211-6.758 1.27-10.98 3.38-12.672 1.901-1.476 6.124-2.113 12.46-2.113h52.168c3.168 0 5.492.848 6.758 2.957 1.687 2.113 2.324 6.125 2.324 12.04h5.277zm-87.648 52.801v84.48c0 1.688-.633 2.958-2.11 3.802-1.48.843-4.226 1.476-8.027 1.476v5.281h97.785V238.67h-5.277c0 5.492-.637 9.504-2.113 11.828-1.266 2.11-3.59 3.168-6.969 3.168h-52.168v-58.082h41.606c4.648 0 7.816.843 9.503 2.957 1.903 2.113 2.747 6.336 2.747 12.883h5.28v-42.239h-5.28c0 6.547-.633 10.77-2.536 12.883-1.687 1.899-5.066 2.957-9.925 2.957h-41.395c-6.336 0-10.77-1.48-12.883-4.012-1.687-2.324-2.746-6.336-2.957-11.828zM206.495 406.723l11.407-27.035 23.02-54.699 4.437-10.559 4.433-10.562 4.649-10.559 7.812-18.586c1.902-4.222 4.012-6.968 6.547-8.238 2.957-1.687 7.395-2.32 13.73-2.32v-5.282h-42.242v5.282h.633c6.336 0 9.926.843 10.984 2.957.422.422.422 1.054.422 1.898 0 1.27-.422 3.168-1.691 5.703l-7.813 18.586-4.437 10.559-4.434 10.562-4.433 10.559-17.32 40.973-17.528-40.973-4.437-10.559-4.434-10.562-4.438-10.559-7.812-18.586c-1.055-2.746-1.691-4.86-1.691-6.125 0-.632.21-1.054.21-1.476.848-1.903 2.958-2.957 6.547-2.957v-5.282h-42.238v5.282c5.281.21 8.871 1.476 10.77 4.011.847.844 1.902 2.957 3.382 6.547l7.813 18.586 4.644 10.559 4.438 10.562 4.434 10.559 28.722 68.219zm0 0"/><path d="M373.554 258.883h-98.418v5.282h.211c3.8 0 6.336.21 8.027 1.054 1.688.844 2.532 2.114 2.532 4.223v14.785h5.281c.21-6.758 1.27-10.98 3.379-12.672 1.902-1.476 6.125-2.113 12.46-2.113h52.169c3.168 0 5.492.848 6.758 2.957 1.687 2.113 2.324 6.125 2.324 12.04h5.277zm-87.648 52.801v84.48c0 1.688-.633 2.958-2.11 3.802-1.48.843-4.226 1.476-8.027 1.476v5.281h97.785V381.17h-5.277c0 5.492-.637 9.504-2.113 11.828-1.266 2.11-3.59 3.168-6.97 3.168h-52.167v-58.082h41.605c4.649 0 7.817.843 9.504 2.957 1.903 2.113 2.746 6.336 2.746 12.883h5.282v-42.239h-5.282c0 6.547-.633 10.77-2.535 12.883-1.687 1.899-5.066 2.957-9.926 2.957h-41.394c-6.336 0-10.77-1.48-12.883-4.012-1.688-2.324-2.746-6.336-2.957-11.828zm0 0"/><path d="M376.722 258.883h-10.559v5.282c5.07 0 8.027.422 9.082 1.687 1.055 1.059 1.477 3.38 1.477 6.758v121.863c0 2.535-.633 4.438-1.899 5.493-1.27.843-4.015 1.476-8.66 1.476v5.281h42.238v-5.28c-4.644 0-7.601-.423-8.867-1.267-1.058-.843-1.691-2.746-1.691-5.703V272.821c0-3.8.633-6.336 1.902-7.18 1.055-1.054 4.012-1.476 8.656-1.476v-5.282zm0 0"/><path d="M499.429 406.723V381.17h-5.277c0 5.703-.637 9.714-2.325 12.039-1.265 1.898-3.59 2.957-6.757 2.957h-52.168V269.442c.21-1.687.843-2.957 2.113-3.8 1.687-1.055 4.644-1.477 8.87-1.477v-5.282h-42.241v5.282c3.8 0 6.547.422 8.027 1.476 1.477.633 2.11 1.903 2.11 3.801v126.723c0 1.898-.844 3.379-2.532 4.222-1.691.633-4.226 1.055-8.027 1.055h-.211v5.281zM763.628 258.883H665.21v5.282h.211c3.8 0 6.336.21 8.027 1.054 1.688.844 2.532 2.114 2.532 4.223v14.785h5.28c.212-6.758 1.27-10.98 3.38-12.672 1.902-1.476 6.125-2.113 12.46-2.113h52.169c3.168 0 5.492.848 6.758 2.957 1.687 2.113 2.324 6.125 2.324 12.04h5.277zm-87.648 52.801v84.48c0 1.688-.633 2.958-2.11 3.802-1.48.843-4.226 1.476-8.027 1.476v5.281h42.242v-5.28c-5.07 0-8.238-.634-9.293-1.477-.848-.844-1.48-2.114-1.691-3.801v-58.082h41.605c4.649 0 7.817.843 9.504 2.957 1.902 2.113 2.746 6.336 2.746 12.883h5.281v-42.239h-5.28c0 6.547-.634 10.77-2.536 12.883-1.687 1.899-5.066 2.957-9.926 2.957h-41.394c-6.336 0-10.77-1.48-12.883-4.012-1.688-2.324-2.746-6.336-2.957-11.828zM164.034 401.383v5.282c4.012 0 6.758.422 8.239 1.265 1.687.633 2.53 1.692 2.53 3.168v15.84h5.282c0-5.914 1.055-9.926 2.957-11.828 2.113-2.11 6.547-3.168 12.883-3.168h19.008c14.363 0 26.613 6.125 36.75 18.586 10.137 12.25 15.207 27.246 15.207 44.773 0 17.32-5.07 32.317-15.207 44.778-10.137 12.25-22.387 18.586-36.75 18.586h-19.008c-6.969 0-11.402-1.27-13.305-3.594-1.691-2.11-2.535-5.91-2.535-11.402h-5.281v15.84c0 1.265-.844 2.324-2.11 3.167-1.269.844-4.226 1.266-8.66 1.266v5.281h50.688c13.515 0 25.555-3.379 36.75-9.925 11.402-6.758 20.062-15.418 26.61-26.825 6.757-11.402 9.925-23.863 9.925-37.172 0-13.515-2.953-25.554-9.715-36.957-6.547-11.406-15.203-20.488-26.61-27.035-11.195-6.758-23.445-9.926-36.75-9.926zM379.034 401.383h-98.418v5.282h.211c3.801 0 6.336.21 8.028 1.054 1.687.844 2.531 2.114 2.531 4.223v14.785h5.281c.211-6.758 1.27-10.98 3.38-12.672 1.901-1.476 6.124-2.113 12.46-2.113h52.168c3.168 0 5.492.848 6.758 2.957 1.687 2.113 2.324 6.125 2.324 12.04h5.277zm-87.648 52.801v84.48c0 1.688-.633 2.958-2.11 3.802-1.48.843-4.226 1.476-8.027 1.476v5.281h97.785V523.67h-5.277c0 5.492-.637 9.504-2.113 11.828-1.266 2.11-3.59 3.168-6.969 3.168h-52.168v-58.082h41.606c4.648 0 7.816.843 9.503 2.957 1.903 2.113 2.747 6.336 2.747 12.883h5.28v-42.239h-5.28c0 6.547-.633 10.77-2.536 12.883-1.687 1.899-5.066 2.957-9.925 2.957h-41.395c-6.336 0-10.77-1.48-12.883-4.012-1.687-2.324-2.746-6.336-2.957-11.828zm0 0"/><path d="m447.886 401.383-11.403 27.036-23.234 54.699-4.434 10.558-4.437 10.563-4.434 10.559-7.812 18.585c-1.692 4.012-4.016 6.758-6.762 8.239-2.742 1.476-7.39 2.32-13.727 2.32v5.281h42.239v-5.28h-.422c-6.125 0-9.715-1.056-10.98-2.958-.212-.422-.423-1.055-.423-1.898 0-1.27.633-3.168 1.477-5.704l7.816-18.585 4.434-10.56 4.434-10.562 4.648-10.558 17.316-40.973 17.32 40.973 4.434 10.558 4.438 10.563 4.433 10.559 8.028 18.585c1.265 2.536 1.687 4.645 1.687 6.125 0 .422 0 1.055-.21 1.477-.633 1.691-2.958 2.746-6.758 2.957v5.281h42.242v-5.28c-5.07-.423-8.45-1.688-10.563-4.013-.633-.843-1.898-3.168-3.59-6.547l-7.812-18.585-4.438-10.56-4.433-10.562-4.438-10.558-28.933-68.219zM510.401 401.383v25.555h5.282c0-7.18.843-11.191 2.11-12.672 1.48-1.687 4.437-2.324 8.66-2.324h29.991c.211.848.211 1.902.211 3.168v121.863c0 2.535-.632 4.438-2.113 5.493-1.266.843-4.012 1.476-8.45 1.476v5.281h42.243v-5.28c-4.86 0-7.605-.423-8.871-1.267-1.055-.843-1.691-2.746-1.691-5.703V415.321c0-1.477.214-2.531.214-3.379h29.567c4.644 0 7.812.848 9.082 2.535 1.265 1.48 1.898 5.703 1.898 12.461h5.282v-25.555zm0 0"/><path d="M616.424 401.383v5.282c4.859 0 7.816.422 8.66 1.476 1.265.844 1.898 3.38 1.898 7.18v121.652c0 2.957-.422 4.86-1.687 5.703-1.055.844-4.012 1.266-8.871 1.266v5.281h42.238v-5.28c-4.434 0-7.39-.634-8.656-1.477-1.27-1.055-1.903-2.958-1.903-5.493V487.13c0-4.012.633-6.547 1.692-7.391 1.265-1.27 4.222-1.691 8.445-1.691h.422v-5.278c-4.645-.21-7.602-1.27-8.867-3.168-1.059-1.691-1.692-4.648-1.692-8.87V415.11c0-3.379.633-5.7 1.48-6.758 1.266-1.265 4.223-1.687 9.079-1.687v-5.282zm77.3 0v5.282c5.067 0 8.024.422 9.082 1.687 1.055 1.059 1.477 3.38 1.477 6.758v45.621c0 4.223-.422 7.18-1.691 8.871-1.266 1.899-4.223 2.957-8.868 3.168v5.278h.422c4.434 0 7.18.421 8.446 1.69 1.27.845 1.69 3.38 1.69 7.392v49.843c0 2.535-.632 4.438-1.901 5.493-1.266.843-4.012 1.476-8.657 1.476v5.281h42.239v-5.28c-4.645 0-7.602-.423-8.871-1.267-1.055-.843-1.688-2.746-1.688-5.703V415.321c0-3.8.633-6.336 1.898-7.18 1.06-1.054 4.016-1.476 8.66-1.476v-5.282zm0 0"/><g clip-path="url(#a)"><g clip-path="url(#b)"><g clip-path="url(#c)"><g clip-path="url(#d)"><path d="M469.484 232.797c-13.754 22.344-40.48 33.773-66.347 30.375-25.207-3.227-47.414-20.39-57.446-43.707-22.285-52.805 20.211-110.649 77.579-102.004a65.432 65.432 0 0 1 10.113 2.555 65.091 65.091 0 0 1 9.582 4.12 66.275 66.275 0 0 1 8.808 5.59 65.655 65.655 0 0 1 7.809 6.919 88.424 88.424 0 0 0-8.945-4.575l-2.297-1.03c-1.395-.696-5.418-1.895-6.914-2.481-27.309-7.899-57.617 1.671-73.64 25.39-15.657 22.18-14.524 53.016 2.269 74.235 1.023 1.097 3.304 4.02 4.414 4.984a63.059 63.059 0 0 0 16.129 11.957 65.588 65.588 0 0 0 26.16 7.34 69.9 69.9 0 0 0 31.367-5.613 69.586 69.586 0 0 0 9.484-4.977 45.036 45.036 0 0 0 4.082-2.785 91.83 91.83 0 0 0 7.817-6.324zm0 0"/></g></g></g></g><g clip-path="url(#e)"><g clip-path="url(#f)"><g clip-path="url(#g)"><g clip-path="url(#h)"><path d="M563.168 280.23c17.613-19.453 45.98-25.793 70.789-17.71 24.191 7.789 42.879 28.73 48.469 53.488 12.238 55.992-40.137 105.074-94.95 86.07a65.58 65.58 0 0 1-25.773-17.281 65.587 65.587 0 0 1-6.41-8.23 87.59 87.59 0 0 0 7.957 6.132l2.066 1.438c1.246.937 4.98 2.855 6.344 3.707 25.399 12.761 56.95 8.906 77.047-11.473 19.453-18.941 23.984-49.46 11.363-73.398-.804-1.266-2.511-4.555-3.425-5.707a63.034 63.034 0 0 0-13.665-14.707 65.186 65.186 0 0 0-11.558-7.282 65.367 65.367 0 0 0-12.817-4.726c-3.476-.84-7-1.41-10.566-1.711a69.98 69.98 0 0 0-10.707-.074 69.767 69.767 0 0 0-20.828 4.71 45.195 45.195 0 0 0-4.52 1.993 91.454 91.454 0 0 0-8.843 4.785zm0 0"/></g></g></g></g></svg>