<svg xmlns="http://www.w3.org/2000/svg" xmlns:xlink="http://www.w3.org/1999/xlink" width="1200" zoomAndPan="magnify" viewBox="0 0 900 599.999999" height="800" preserveAspectRatio="xMidYMid meet" version="1.0"><defs><g/><clipPath id="b004d3895b"><path d="M 339 116 L 470 116 L 470 264 L 339 264 Z M 339 116 " clip-rule="nonzero"/></clipPath><clipPath id="fb3acf582e"><path d="M 390.769531 78.265625 L 516.503906 180.417969 L 421.917969 296.835938 L 296.183594 194.683594 Z M 390.769531 78.265625 " clip-rule="nonzero"/></clipPath><clipPath id="858577a450"><path d="M 390.769531 78.265625 L 516.503906 180.417969 L 421.917969 296.835938 L 296.183594 194.683594 Z M 390.769531 78.265625 " clip-rule="nonzero"/></clipPath><clipPath id="467c6175cf"><path d="M 390.769531 78.265625 L 516.503906 180.417969 L 421.917969 296.835938 L 296.183594 194.683594 Z M 390.769531 78.265625 " clip-rule="nonzero"/></clipPath><clipPath id="6742e7aeb5"><path d="M 555 259 L 685 259 L 685 407 L 555 407 Z M 555 259 " clip-rule="nonzero"/></clipPath><clipPath id="58f7a9d016"><path d="M 612.246094 446.5625 L 507.351562 323.109375 L 621.660156 225.980469 L 726.554688 349.433594 Z M 612.246094 446.5625 " clip-rule="nonzero"/></clipPath><clipPath id="a16d61babb"><path d="M 612.246094 446.5625 L 507.351562 323.109375 L 621.660156 225.980469 L 726.554688 349.433594 Z M 612.246094 446.5625 " clip-rule="nonzero"/></clipPath><clipPath id="b91a8cdd41"><path d="M 612.246094 446.5625 L 507.351562 323.109375 L 621.660156 225.980469 L 726.554688 349.433594 Z M 612.246094 446.5625 " clip-rule="nonzero"/></clipPath></defs><rect x="-90" width="1080" fill="#ffffff" y="-60" height="719.999999" fill-opacity="1"/><rect x="-90" width="1080" fill="#ffffff" y="-60" height="719.999999" fill-opacity="1"/><rect x="-90" width="1080" fill="#ffffff" y="-60" height="719.999999" fill-opacity="1"/><g fill="#000000" fill-opacity="1"><g transform="translate(89.178899, 264.223331)"><g><path d="M 16.894531 -147.839844 L 6.335938 -147.839844 L 6.335938 -142.558594 C 11.40625 -142.558594 14.363281 -142.136719 15.417969 -140.871094 C 16.472656 -139.8125 16.894531 -137.492188 16.894531 -134.113281 L 16.894531 -12.25 C 16.894531 -9.714844 16.261719 -7.8125 14.996094 -6.757812 C 13.726562 -5.914062 10.980469 -5.28125 6.335938 -5.28125 L 6.335938 0 L 48.574219 0 L 48.574219 -5.28125 C 43.929688 -5.28125 40.972656 -5.703125 39.707031 -6.546875 C 38.648438 -7.390625 38.015625 -9.292969 38.015625 -12.25 L 38.015625 -133.902344 C 38.015625 -137.703125 38.648438 -140.238281 39.917969 -141.082031 C 40.972656 -142.136719 43.929688 -142.558594 48.574219 -142.558594 L 48.574219 -147.839844 Z M 16.894531 -147.839844 "/></g></g></g><g fill="#000000" fill-opacity="1"><g transform="translate(124.026723, 264.223331)"><g><path d="M 6.335938 -147.839844 L 6.335938 -142.558594 C 10.347656 -141.292969 13.09375 -139.601562 14.574219 -137.703125 C 15.207031 -137.28125 16.261719 -136.011719 17.742188 -133.691406 C 19.429688 -131.578125 20.910156 -129.464844 22.175781 -127.355469 L 32.734375 -113.625 L 109.191406 -13.726562 L 119.75 0 L 119.75 -134.324219 C 119.75 -137.703125 120.804688 -139.8125 122.707031 -140.871094 C 124.1875 -141.714844 128.410156 -142.347656 135.589844 -142.558594 L 135.589844 -147.839844 L 93.351562 -147.839844 L 93.351562 -142.558594 C 100.53125 -142.558594 105.175781 -141.925781 106.867188 -140.449219 C 108.558594 -139.179688 109.191406 -137.070312 109.191406 -134.113281 L 109.191406 -48.574219 L 33.160156 -147.839844 Z M 6.335938 -147.839844 "/></g></g></g><g fill="#000000" fill-opacity="1"><g transform="translate(245.677597, 264.223331)"><g><path d="M 6.335938 -147.839844 L 6.335938 -122.285156 L 11.617188 -122.285156 C 11.617188 -129.464844 12.460938 -133.476562 13.726562 -134.957031 C 15.207031 -136.644531 18.164062 -137.28125 22.386719 -137.28125 L 52.378906 -137.28125 C 52.589844 -136.433594 52.589844 -135.378906 52.589844 -134.113281 L 52.589844 -12.25 C 52.589844 -9.714844 51.957031 -7.8125 50.476562 -6.757812 C 49.210938 -5.914062 46.464844 -5.28125 42.027344 -5.28125 L 42.027344 0 L 84.269531 0 L 84.269531 -5.28125 C 79.410156 -5.28125 76.664062 -5.703125 75.398438 -6.546875 C 74.34375 -7.390625 73.707031 -9.292969 73.707031 -12.25 L 73.707031 -133.902344 C 73.707031 -135.378906 73.921875 -136.433594 73.921875 -137.28125 L 103.488281 -137.28125 C 108.132812 -137.28125 111.300781 -136.433594 112.570312 -134.746094 C 113.835938 -133.265625 114.46875 -129.042969 114.46875 -122.285156 L 119.75 -122.285156 L 119.75 -147.839844 Z M 6.335938 -147.839844 "/></g></g></g><g fill="#000000" fill-opacity="1"><g transform="translate(351.69061, 264.223331)"><g/></g></g><g fill="#000000" fill-opacity="1"><g transform="translate(394.986417, 264.223331)"><g/></g></g><g fill="#000000" fill-opacity="1"><g transform="translate(438.282224, 264.223331)"><g/></g></g><g fill="#000000" fill-opacity="1"><g transform="translate(481.569507, 264.223331)"><g><path d="M 6.335938 -147.839844 L 6.335938 -122.285156 L 11.617188 -122.285156 C 11.617188 -129.464844 12.460938 -133.476562 13.726562 -134.957031 C 15.207031 -136.644531 18.164062 -137.28125 22.386719 -137.28125 L 52.378906 -137.28125 C 52.589844 -136.433594 52.589844 -135.378906 52.589844 -134.113281 L 52.589844 -12.25 C 52.589844 -9.714844 51.957031 -7.8125 50.476562 -6.757812 C 49.210938 -5.914062 46.464844 -5.28125 42.027344 -5.28125 L 42.027344 0 L 84.269531 0 L 84.269531 -5.28125 C 79.410156 -5.28125 76.664062 -5.703125 75.398438 -6.546875 C 74.34375 -7.390625 73.707031 -9.292969 73.707031 -12.25 L 73.707031 -133.902344 C 73.707031 -135.378906 73.921875 -136.433594 73.921875 -137.28125 L 103.488281 -137.28125 C 108.132812 -137.28125 111.300781 -136.433594 112.570312 -134.746094 C 113.835938 -133.265625 114.46875 -129.042969 114.46875 -122.285156 L 119.75 -122.285156 L 119.75 -147.839844 Z M 6.335938 -147.839844 "/></g></g></g><g fill="#000000" fill-opacity="1"><g transform="translate(587.591608, 264.223331)"><g><path d="M 6.335938 -147.839844 L 6.335938 -142.558594 C 11.195312 -142.558594 14.152344 -142.136719 14.996094 -141.082031 C 16.261719 -140.238281 16.894531 -137.703125 16.894531 -133.902344 L 16.894531 -12.25 C 16.894531 -9.292969 16.472656 -7.390625 15.207031 -6.546875 C 14.152344 -5.703125 11.195312 -5.28125 6.335938 -5.28125 L 6.335938 0 L 48.574219 0 L 48.574219 -5.28125 C 44.140625 -5.28125 41.183594 -5.914062 39.917969 -6.757812 C 38.648438 -7.8125 38.015625 -9.714844 38.015625 -12.25 L 38.015625 -62.09375 C 38.015625 -66.105469 38.648438 -68.640625 39.707031 -69.484375 C 40.972656 -70.753906 43.929688 -71.175781 48.152344 -71.175781 L 48.574219 -71.175781 L 48.574219 -76.453125 C 43.929688 -76.664062 40.972656 -77.722656 39.707031 -79.621094 C 38.648438 -81.3125 38.015625 -84.269531 38.015625 -88.492188 L 38.015625 -134.113281 C 38.015625 -137.492188 38.648438 -139.8125 39.496094 -140.871094 C 40.761719 -142.136719 43.71875 -142.558594 48.574219 -142.558594 L 48.574219 -147.839844 Z M 83.636719 -147.839844 L 83.636719 -142.558594 C 88.703125 -142.558594 91.660156 -142.136719 92.71875 -140.871094 C 93.773438 -139.8125 94.195312 -137.492188 94.195312 -134.113281 L 94.195312 -88.492188 C 94.195312 -84.269531 93.773438 -81.3125 92.503906 -79.621094 C 91.238281 -77.722656 88.28125 -76.664062 83.636719 -76.453125 L 83.636719 -71.175781 L 84.058594 -71.175781 C 88.492188 -71.175781 91.238281 -70.753906 92.503906 -69.484375 C 93.773438 -68.640625 94.195312 -66.105469 94.195312 -62.09375 L 94.195312 -12.25 C 94.195312 -9.714844 93.5625 -7.8125 92.292969 -6.757812 C 91.027344 -5.914062 88.28125 -5.28125 83.636719 -5.28125 L 83.636719 0 L 125.875 0 L 125.875 -5.28125 C 121.230469 -5.28125 118.273438 -5.703125 117.003906 -6.546875 C 115.949219 -7.390625 115.316406 -9.292969 115.316406 -12.25 L 115.316406 -133.902344 C 115.316406 -137.703125 115.949219 -140.238281 117.214844 -141.082031 C 118.273438 -142.136719 121.230469 -142.558594 125.875 -142.558594 L 125.875 -147.839844 Z M 83.636719 -147.839844 "/></g></g></g><g fill="#000000" fill-opacity="1"><g transform="translate(699.738519, 264.223331)"><g><path d="M 104.753906 -147.839844 L 6.335938 -147.839844 L 6.335938 -142.558594 L 6.546875 -142.558594 C 10.347656 -142.558594 12.882812 -142.347656 14.574219 -141.503906 C 16.261719 -140.660156 17.105469 -139.390625 17.105469 -137.28125 L 17.105469 -122.496094 L 22.386719 -122.496094 C 22.597656 -129.253906 23.65625 -133.476562 25.765625 -135.167969 C 27.667969 -136.644531 31.890625 -137.28125 38.226562 -137.28125 L 90.394531 -137.28125 C 93.5625 -137.28125 95.886719 -136.433594 97.152344 -134.324219 C 98.839844 -132.210938 99.476562 -128.199219 99.476562 -122.285156 L 104.753906 -122.285156 Z M 17.105469 -95.039062 L 17.105469 -10.558594 C 17.105469 -8.871094 16.472656 -7.601562 14.996094 -6.757812 C 13.515625 -5.914062 10.769531 -5.28125 6.96875 -5.28125 L 6.96875 0 L 104.753906 0 L 104.753906 -25.554688 L 99.476562 -25.554688 C 99.476562 -20.0625 98.839844 -16.050781 97.363281 -13.726562 C 96.097656 -11.617188 93.773438 -10.558594 90.394531 -10.558594 L 38.226562 -10.558594 L 38.226562 -68.640625 L 79.832031 -68.640625 C 84.480469 -68.640625 87.648438 -67.796875 89.335938 -65.683594 C 91.238281 -63.570312 92.082031 -59.347656 92.082031 -52.800781 L 97.363281 -52.800781 L 97.363281 -95.039062 L 92.082031 -95.039062 C 92.082031 -88.492188 91.449219 -84.269531 89.546875 -82.15625 C 87.859375 -80.257812 84.480469 -79.199219 79.621094 -79.199219 L 38.226562 -79.199219 C 31.890625 -79.199219 27.457031 -80.679688 25.34375 -83.210938 C 23.65625 -85.535156 22.597656 -89.546875 22.386719 -95.039062 Z M 17.105469 -95.039062 "/></g></g></g><g fill="#000000" fill-opacity="1"><g transform="translate(130.042182, 406.723325)"><g><path d="M 76.453125 0 L 87.859375 -27.035156 L 110.878906 -81.734375 L 115.316406 -92.292969 L 119.75 -102.855469 L 124.398438 -113.414062 L 132.210938 -132 C 134.113281 -136.222656 136.222656 -138.96875 138.757812 -140.238281 C 141.714844 -141.925781 146.152344 -142.558594 152.488281 -142.558594 L 152.488281 -147.839844 L 110.246094 -147.839844 L 110.246094 -142.558594 L 110.878906 -142.558594 C 117.214844 -142.558594 120.804688 -141.714844 121.863281 -139.601562 C 122.285156 -139.179688 122.285156 -138.546875 122.285156 -137.703125 C 122.285156 -136.433594 121.863281 -134.535156 120.59375 -132 L 112.78125 -113.414062 L 108.34375 -102.855469 L 103.910156 -92.292969 L 99.476562 -81.734375 L 82.15625 -40.761719 L 64.628906 -81.734375 L 60.191406 -92.292969 L 55.757812 -102.855469 L 51.320312 -113.414062 L 43.507812 -132 C 42.453125 -134.746094 41.816406 -136.859375 41.816406 -138.125 C 41.816406 -138.757812 42.027344 -139.179688 42.027344 -139.601562 C 42.875 -141.503906 44.984375 -142.558594 48.574219 -142.558594 L 48.574219 -147.839844 L 6.335938 -147.839844 L 6.335938 -142.558594 C 11.617188 -142.347656 15.207031 -141.082031 17.105469 -138.546875 C 17.953125 -137.703125 19.007812 -135.589844 20.488281 -132 L 28.300781 -113.414062 L 32.945312 -102.855469 L 37.382812 -92.292969 L 41.816406 -81.734375 L 70.539062 -13.515625 Z M 76.453125 0 "/></g></g></g><g fill="#000000" fill-opacity="1"><g transform="translate(268.800231, 406.723325)"><g><path d="M 104.753906 -147.839844 L 6.335938 -147.839844 L 6.335938 -142.558594 L 6.546875 -142.558594 C 10.347656 -142.558594 12.882812 -142.347656 14.574219 -141.503906 C 16.261719 -140.660156 17.105469 -139.390625 17.105469 -137.28125 L 17.105469 -122.496094 L 22.386719 -122.496094 C 22.597656 -129.253906 23.65625 -133.476562 25.765625 -135.167969 C 27.667969 -136.644531 31.890625 -137.28125 38.226562 -137.28125 L 90.394531 -137.28125 C 93.5625 -137.28125 95.886719 -136.433594 97.152344 -134.324219 C 98.839844 -132.210938 99.476562 -128.199219 99.476562 -122.285156 L 104.753906 -122.285156 Z M 17.105469 -95.039062 L 17.105469 -10.558594 C 17.105469 -8.871094 16.472656 -7.601562 14.996094 -6.757812 C 13.515625 -5.914062 10.769531 -5.28125 6.96875 -5.28125 L 6.96875 0 L 104.753906 0 L 104.753906 -25.554688 L 99.476562 -25.554688 C 99.476562 -20.0625 98.839844 -16.050781 97.363281 -13.726562 C 96.097656 -11.617188 93.773438 -10.558594 90.394531 -10.558594 L 38.226562 -10.558594 L 38.226562 -68.640625 L 79.832031 -68.640625 C 84.480469 -68.640625 87.648438 -67.796875 89.335938 -65.683594 C 91.238281 -63.570312 92.082031 -59.347656 92.082031 -52.800781 L 97.363281 -52.800781 L 97.363281 -95.039062 L 92.082031 -95.039062 C 92.082031 -88.492188 91.449219 -84.269531 89.546875 -82.15625 C 87.859375 -80.257812 84.480469 -79.199219 79.621094 -79.199219 L 38.226562 -79.199219 C 31.890625 -79.199219 27.457031 -80.679688 25.34375 -83.210938 C 23.65625 -85.535156 22.597656 -89.546875 22.386719 -95.039062 Z M 17.105469 -95.039062 "/></g></g></g><g fill="#000000" fill-opacity="1"><g transform="translate(359.827151, 406.723325)"><g><path d="M 16.894531 -147.839844 L 6.335938 -147.839844 L 6.335938 -142.558594 C 11.40625 -142.558594 14.363281 -142.136719 15.417969 -140.871094 C 16.472656 -139.8125 16.894531 -137.492188 16.894531 -134.113281 L 16.894531 -12.25 C 16.894531 -9.714844 16.261719 -7.8125 14.996094 -6.757812 C 13.726562 -5.914062 10.980469 -5.28125 6.335938 -5.28125 L 6.335938 0 L 48.574219 0 L 48.574219 -5.28125 C 43.929688 -5.28125 40.972656 -5.703125 39.707031 -6.546875 C 38.648438 -7.390625 38.015625 -9.292969 38.015625 -12.25 L 38.015625 -133.902344 C 38.015625 -137.703125 38.648438 -140.238281 39.917969 -141.082031 C 40.972656 -142.136719 43.929688 -142.558594 48.574219 -142.558594 L 48.574219 -147.839844 Z M 16.894531 -147.839844 "/></g></g></g><g fill="#000000" fill-opacity="1"><g transform="translate(394.674982, 406.723325)"><g><path d="M 104.753906 0 L 104.753906 -25.554688 L 99.476562 -25.554688 C 99.476562 -19.851562 98.839844 -15.839844 97.152344 -13.515625 C 95.886719 -11.617188 93.5625 -10.558594 90.394531 -10.558594 L 38.226562 -10.558594 L 38.226562 -137.28125 C 38.4375 -138.96875 39.070312 -140.238281 40.339844 -141.082031 C 42.027344 -142.136719 44.984375 -142.558594 49.210938 -142.558594 L 49.210938 -147.839844 L 6.96875 -147.839844 L 6.96875 -142.558594 C 10.769531 -142.558594 13.515625 -142.136719 14.996094 -141.082031 C 16.472656 -140.449219 17.105469 -139.179688 17.105469 -137.28125 L 17.105469 -10.558594 C 17.105469 -8.660156 16.261719 -7.179688 14.574219 -6.335938 C 12.882812 -5.703125 10.347656 -5.28125 6.546875 -5.28125 L 6.335938 -5.28125 L 6.335938 0 Z M 104.753906 0 "/></g></g></g><g fill="#000000" fill-opacity="1"><g transform="translate(485.694507, 406.723325)"><g/></g></g><g fill="#000000" fill-opacity="1"><g transform="translate(528.990314, 406.723325)"><g/></g></g><g fill="#000000" fill-opacity="1"><g transform="translate(572.286121, 406.723325)"><g/></g></g><g fill="#000000" fill-opacity="1"><g transform="translate(615.581921, 406.723325)"><g/></g></g><g fill="#000000" fill-opacity="1"><g transform="translate(658.874187, 406.723325)"><g><path d="M 104.753906 -147.839844 L 6.335938 -147.839844 L 6.335938 -142.558594 L 6.546875 -142.558594 C 10.347656 -142.558594 12.882812 -142.347656 14.574219 -141.503906 C 16.261719 -140.660156 17.105469 -139.390625 17.105469 -137.28125 L 17.105469 -122.496094 L 22.386719 -122.496094 C 22.597656 -129.253906 23.65625 -133.476562 25.765625 -135.167969 C 27.667969 -136.644531 31.890625 -137.28125 38.226562 -137.28125 L 90.394531 -137.28125 C 93.5625 -137.28125 95.886719 -136.433594 97.152344 -134.324219 C 98.839844 -132.210938 99.476562 -128.199219 99.476562 -122.285156 L 104.753906 -122.285156 Z M 17.105469 -95.039062 L 17.105469 -10.558594 C 17.105469 -8.871094 16.472656 -7.601562 14.996094 -6.757812 C 13.515625 -5.914062 10.769531 -5.28125 6.96875 -5.28125 L 6.96875 0 L 49.210938 0 L 49.210938 -5.28125 C 44.140625 -5.28125 40.972656 -5.914062 39.917969 -6.757812 C 39.070312 -7.601562 38.4375 -8.871094 38.226562 -10.558594 L 38.226562 -68.640625 L 79.832031 -68.640625 C 84.480469 -68.640625 87.648438 -67.796875 89.335938 -65.683594 C 91.238281 -63.570312 92.082031 -59.347656 92.082031 -52.800781 L 97.363281 -52.800781 L 97.363281 -95.039062 L 92.082031 -95.039062 C 92.082031 -88.492188 91.449219 -84.269531 89.546875 -82.15625 C 87.859375 -80.257812 84.480469 -79.199219 79.621094 -79.199219 L 38.226562 -79.199219 C 31.890625 -79.199219 27.457031 -80.679688 25.34375 -83.210938 C 23.65625 -85.535156 22.597656 -89.546875 22.386719 -95.039062 Z M 17.105469 -95.039062 "/></g></g></g><g fill="#000000" fill-opacity="1"><g transform="translate(157.698431, 549.223319)"><g><path d="M 6.335938 -147.839844 L 6.335938 -142.558594 C 10.347656 -142.558594 13.09375 -142.136719 14.574219 -141.292969 C 16.261719 -140.660156 17.105469 -139.601562 17.105469 -138.125 L 17.105469 -122.285156 L 22.386719 -122.285156 C 22.386719 -128.199219 23.441406 -132.210938 25.34375 -134.113281 C 27.457031 -136.222656 31.890625 -137.28125 38.226562 -137.28125 L 57.234375 -137.28125 C 71.597656 -137.28125 83.847656 -131.15625 93.984375 -118.695312 C 104.121094 -106.445312 109.191406 -91.449219 109.191406 -73.921875 C 109.191406 -56.601562 104.121094 -41.605469 93.984375 -29.144531 C 83.847656 -16.894531 71.597656 -10.558594 57.234375 -10.558594 L 38.226562 -10.558594 C 31.257812 -10.558594 26.824219 -11.828125 24.921875 -14.152344 C 23.230469 -16.261719 22.386719 -20.0625 22.386719 -25.554688 L 17.105469 -25.554688 L 17.105469 -9.714844 C 17.105469 -8.449219 16.261719 -7.390625 14.996094 -6.546875 C 13.726562 -5.703125 10.769531 -5.28125 6.335938 -5.28125 L 6.335938 0 L 57.023438 0 C 70.539062 0 82.578125 -3.378906 93.773438 -9.925781 C 105.175781 -16.683594 113.835938 -25.34375 120.382812 -36.75 C 127.140625 -48.152344 130.308594 -60.613281 130.308594 -73.921875 C 130.308594 -87.4375 127.355469 -99.476562 120.59375 -110.878906 C 114.046875 -122.285156 105.390625 -131.367188 93.984375 -137.914062 C 82.789062 -144.671875 70.539062 -147.839844 57.234375 -147.839844 Z M 6.335938 -147.839844 "/></g></g></g><g fill="#000000" fill-opacity="1"><g transform="translate(274.280522, 549.223319)"><g><path d="M 104.753906 -147.839844 L 6.335938 -147.839844 L 6.335938 -142.558594 L 6.546875 -142.558594 C 10.347656 -142.558594 12.882812 -142.347656 14.574219 -141.503906 C 16.261719 -140.660156 17.105469 -139.390625 17.105469 -137.28125 L 17.105469 -122.496094 L 22.386719 -122.496094 C 22.597656 -129.253906 23.65625 -133.476562 25.765625 -135.167969 C 27.667969 -136.644531 31.890625 -137.28125 38.226562 -137.28125 L 90.394531 -137.28125 C 93.5625 -137.28125 95.886719 -136.433594 97.152344 -134.324219 C 98.839844 -132.210938 99.476562 -128.199219 99.476562 -122.285156 L 104.753906 -122.285156 Z M 17.105469 -95.039062 L 17.105469 -10.558594 C 17.105469 -8.871094 16.472656 -7.601562 14.996094 -6.757812 C 13.515625 -5.914062 10.769531 -5.28125 6.96875 -5.28125 L 6.96875 0 L 104.753906 0 L 104.753906 -25.554688 L 99.476562 -25.554688 C 99.476562 -20.0625 98.839844 -16.050781 97.363281 -13.726562 C 96.097656 -11.617188 93.773438 -10.558594 90.394531 -10.558594 L 38.226562 -10.558594 L 38.226562 -68.640625 L 79.832031 -68.640625 C 84.480469 -68.640625 87.648438 -67.796875 89.335938 -65.683594 C 91.238281 -63.570312 92.082031 -59.347656 92.082031 -52.800781 L 97.363281 -52.800781 L 97.363281 -95.039062 L 92.082031 -95.039062 C 92.082031 -88.492188 91.449219 -84.269531 89.546875 -82.15625 C 87.859375 -80.257812 84.480469 -79.199219 79.621094 -79.199219 L 38.226562 -79.199219 C 31.890625 -79.199219 27.457031 -80.679688 25.34375 -83.210938 C 23.65625 -85.535156 22.597656 -89.546875 22.386719 -95.039062 Z M 17.105469 -95.039062 "/></g></g></g><g fill="#000000" fill-opacity="1"><g transform="translate(365.307453, 549.223319)"><g><path d="M 82.578125 -147.839844 L 71.175781 -120.804688 L 47.941406 -66.105469 L 43.507812 -55.546875 L 39.070312 -44.984375 L 34.636719 -34.425781 L 26.824219 -15.839844 C 25.132812 -11.828125 22.808594 -9.082031 20.0625 -7.601562 C 17.320312 -6.125 12.671875 -5.28125 6.335938 -5.28125 L 6.335938 0 L 48.574219 0 L 48.574219 -5.28125 C 48.574219 -5.28125 48.363281 -5.28125 48.152344 -5.28125 C 42.027344 -5.28125 38.4375 -6.335938 37.171875 -8.238281 C 36.960938 -8.660156 36.75 -9.292969 36.75 -10.136719 C 36.75 -11.40625 37.382812 -13.304688 38.226562 -15.839844 L 46.042969 -34.425781 L 50.476562 -44.984375 L 54.910156 -55.546875 L 59.558594 -66.105469 L 76.875 -107.078125 L 94.195312 -66.105469 L 98.628906 -55.546875 L 103.066406 -44.984375 L 107.5 -34.425781 L 115.527344 -15.839844 C 116.792969 -13.304688 117.214844 -11.195312 117.214844 -9.714844 C 117.214844 -9.292969 117.214844 -8.660156 117.003906 -8.238281 C 116.371094 -6.546875 114.046875 -5.492188 110.246094 -5.28125 L 110.246094 0 L 152.488281 0 L 152.488281 -5.28125 C 147.417969 -5.703125 144.039062 -6.96875 141.925781 -9.292969 C 141.292969 -10.136719 140.027344 -12.460938 138.335938 -15.839844 L 130.523438 -34.425781 L 126.085938 -44.984375 L 121.652344 -55.546875 L 117.214844 -66.105469 L 88.28125 -134.324219 Z M 82.578125 -147.839844 "/></g></g></g><g fill="#000000" fill-opacity="1"><g transform="translate(504.065502, 549.223319)"><g><path d="M 6.335938 -147.839844 L 6.335938 -122.285156 L 11.617188 -122.285156 C 11.617188 -129.464844 12.460938 -133.476562 13.726562 -134.957031 C 15.207031 -136.644531 18.164062 -137.28125 22.386719 -137.28125 L 52.378906 -137.28125 C 52.589844 -136.433594 52.589844 -135.378906 52.589844 -134.113281 L 52.589844 -12.25 C 52.589844 -9.714844 51.957031 -7.8125 50.476562 -6.757812 C 49.210938 -5.914062 46.464844 -5.28125 42.027344 -5.28125 L 42.027344 0 L 84.269531 0 L 84.269531 -5.28125 C 79.410156 -5.28125 76.664062 -5.703125 75.398438 -6.546875 C 74.34375 -7.390625 73.707031 -9.292969 73.707031 -12.25 L 73.707031 -133.902344 C 73.707031 -135.378906 73.921875 -136.433594 73.921875 -137.28125 L 103.488281 -137.28125 C 108.132812 -137.28125 111.300781 -136.433594 112.570312 -134.746094 C 113.835938 -133.265625 114.46875 -129.042969 114.46875 -122.285156 L 119.75 -122.285156 L 119.75 -147.839844 Z M 6.335938 -147.839844 "/></g></g></g><g fill="#000000" fill-opacity="1"><g transform="translate(610.087615, 549.223319)"><g><path d="M 6.335938 -147.839844 L 6.335938 -142.558594 C 11.195312 -142.558594 14.152344 -142.136719 14.996094 -141.082031 C 16.261719 -140.238281 16.894531 -137.703125 16.894531 -133.902344 L 16.894531 -12.25 C 16.894531 -9.292969 16.472656 -7.390625 15.207031 -6.546875 C 14.152344 -5.703125 11.195312 -5.28125 6.335938 -5.28125 L 6.335938 0 L 48.574219 0 L 48.574219 -5.28125 C 44.140625 -5.28125 41.183594 -5.914062 39.917969 -6.757812 C 38.648438 -7.8125 38.015625 -9.714844 38.015625 -12.25 L 38.015625 -62.09375 C 38.015625 -66.105469 38.648438 -68.640625 39.707031 -69.484375 C 40.972656 -70.753906 43.929688 -71.175781 48.152344 -71.175781 L 48.574219 -71.175781 L 48.574219 -76.453125 C 43.929688 -76.664062 40.972656 -77.722656 39.707031 -79.621094 C 38.648438 -81.3125 38.015625 -84.269531 38.015625 -88.492188 L 38.015625 -134.113281 C 38.015625 -137.492188 38.648438 -139.8125 39.496094 -140.871094 C 40.761719 -142.136719 43.71875 -142.558594 48.574219 -142.558594 L 48.574219 -147.839844 Z M 83.636719 -147.839844 L 83.636719 -142.558594 C 88.703125 -142.558594 91.660156 -142.136719 92.71875 -140.871094 C 93.773438 -139.8125 94.195312 -137.492188 94.195312 -134.113281 L 94.195312 -88.492188 C 94.195312 -84.269531 93.773438 -81.3125 92.503906 -79.621094 C 91.238281 -77.722656 88.28125 -76.664062 83.636719 -76.453125 L 83.636719 -71.175781 L 84.058594 -71.175781 C 88.492188 -71.175781 91.238281 -70.753906 92.503906 -69.484375 C 93.773438 -68.640625 94.195312 -66.105469 94.195312 -62.09375 L 94.195312 -12.25 C 94.195312 -9.714844 93.5625 -7.8125 92.292969 -6.757812 C 91.027344 -5.914062 88.28125 -5.28125 83.636719 -5.28125 L 83.636719 0 L 125.875 0 L 125.875 -5.28125 C 121.230469 -5.28125 118.273438 -5.703125 117.003906 -6.546875 C 115.949219 -7.390625 115.316406 -9.292969 115.316406 -12.25 L 115.316406 -133.902344 C 115.316406 -137.703125 115.949219 -140.238281 117.214844 -141.082031 C 118.273438 -142.136719 121.230469 -142.558594 125.875 -142.558594 L 125.875 -147.839844 Z M 83.636719 -147.839844 "/></g></g></g><g clip-path="url(#b004d3895b)"><g clip-path="url(#fb3acf582e)"><g clip-path="url(#858577a450)"><g clip-path="url(#467c6175cf)"><path fill="#000000" d="M 469.484375 232.796875 C 455.730469 255.140625 429.003906 266.570312 403.136719 263.171875 C 377.929688 259.945312 355.722656 242.78125 345.691406 219.464844 C 323.40625 166.660156 365.902344 108.816406 423.269531 117.460938 C 426.707031 118.042969 430.078125 118.894531 433.382812 120.015625 C 436.6875 121.132812 439.882812 122.507812 442.964844 124.136719 C 446.050781 125.769531 448.984375 127.632812 451.773438 129.726562 C 454.558594 131.824219 457.164062 134.132812 459.582031 136.644531 C 456.6875 134.949219 453.703125 133.425781 450.636719 132.070312 L 448.339844 131.039062 C 446.945312 130.34375 442.921875 129.144531 441.425781 128.558594 C 414.117188 120.660156 383.808594 130.230469 367.785156 153.949219 C 352.128906 176.128906 353.261719 206.964844 370.054688 228.183594 C 371.078125 229.28125 373.359375 232.203125 374.46875 233.167969 C 379.207031 238.015625 384.582031 242 390.597656 245.125 C 394.652344 247.246094 398.882812 248.925781 403.289062 250.164062 C 407.699219 251.402344 412.1875 252.167969 416.757812 252.464844 C 420.328125 252.652344 423.898438 252.570312 427.457031 252.210938 C 431.019531 251.851562 434.53125 251.222656 437.996094 250.324219 C 441.460938 249.425781 444.839844 248.269531 448.125 246.851562 C 451.414062 245.4375 454.574219 243.777344 457.609375 241.875 C 459.019531 241.023438 460.378906 240.09375 461.691406 239.089844 C 464.410156 237.125 467.015625 235.019531 469.507812 232.765625 Z M 469.484375 232.796875 " fill-opacity="1" fill-rule="nonzero"/></g></g></g></g><g clip-path="url(#6742e7aeb5)"><g clip-path="url(#58f7a9d016)"><g clip-path="url(#a16d61babb)"><g clip-path="url(#b91a8cdd41)"><path fill="#000000" d="M 563.167969 280.230469 C 580.78125 260.777344 609.148438 254.4375 633.957031 262.519531 C 658.148438 270.308594 676.835938 291.25 682.425781 316.007812 C 694.664062 372 642.289062 421.082031 587.476562 402.078125 C 584.203125 400.875 581.042969 399.421875 578 397.714844 C 574.957031 396.007812 572.070312 394.070312 569.335938 391.90625 C 566.601562 389.738281 564.058594 387.367188 561.703125 384.796875 C 559.347656 382.222656 557.210938 379.480469 555.292969 376.566406 C 557.828125 378.761719 560.480469 380.808594 563.25 382.699219 L 565.316406 384.136719 C 566.5625 385.074219 570.296875 386.992188 571.660156 387.84375 C 597.058594 400.605469 628.609375 396.75 648.707031 376.371094 C 668.160156 357.429688 672.691406 326.910156 660.070312 302.972656 C 659.265625 301.707031 657.558594 298.417969 656.644531 297.265625 C 652.875 291.632812 648.320312 286.730469 642.980469 282.558594 C 639.382812 279.726562 635.53125 277.300781 631.421875 275.277344 C 627.316406 273.253906 623.042969 271.679688 618.605469 270.550781 C 615.128906 269.710938 611.605469 269.140625 608.039062 268.839844 C 604.472656 268.542969 600.902344 268.515625 597.332031 268.765625 C 593.761719 269.011719 590.230469 269.53125 586.738281 270.320312 C 583.246094 271.113281 579.835938 272.164062 576.503906 273.476562 C 574.960938 274.058594 573.453125 274.722656 571.984375 275.46875 C 568.949219 276.902344 566 278.496094 563.140625 280.253906 Z M 563.167969 280.230469 " fill-opacity="1" fill-rule="nonzero"/></g></g></g></g></svg>